<?xml version="1.0" encoding="UTF-8" standalone="no"?>
<!DOCTYPE svg PUBLIC "-//W3C//DTD SVG 1.1//EN" "http://www.w3.org/Graphics/SVG/1.1/DTD/svg11.dtd">
<svg width="100%" height="100%" viewBox="0 0 200 200" version="1.1" xmlns="http://www.w3.org/2000/svg" xmlns:xlink="http://www.w3.org/1999/xlink" xml:space="preserve" xmlns:serif="http://www.serif.com/" style="fill-rule:evenodd;clip-rule:evenodd;stroke-linejoin:round;stroke-miterlimit:2;">
    <g id="Layer3">
        <circle cx="100" cy="100" r="100" style="fill:#11520e;"/>
    </g>
    <g transform="matrix(1.066,0,0,0.956261,-14.2533,-31.4881)">
        <ellipse cx="107.18" cy="148.588" rx="73.059" ry="44.791"/>
    </g>
    <g transform="matrix(0.708009,0.23962,-0.303568,0.89696,155.14,-2.90968)">
        <ellipse cx="32.65" cy="78.294" rx="26.834" ry="31.033"/>
    </g>
    <g transform="matrix(-0.744611,0.252007,0.303568,0.89696,48.6271,-2.76984)">
        <ellipse cx="32.65" cy="78.294" rx="26.834" ry="31.033"/>
    </g>
    <g id="Layer1">
        <g transform="matrix(0.778809,0,0,0.778809,22.1191,14.2137)">
            <path d="M119.588,84.429C115.064,83.059 115.941,95.602 119.588,98.61C127.538,105.165 167.287,115.378 167.287,123.763C167.287,132.147 127.538,142.36 119.588,148.916C115.941,151.923 115.072,164.494 119.588,163.097C129.66,159.981 169.95,137.917 180.022,130.219C183.547,127.525 183.559,119.589 180.022,116.91C169.95,109.278 129.66,87.479 119.588,84.429Z" style="fill:#bee0bc;"/>
        </g>
        <g transform="matrix(-0.778809,0,0,0.778809,180.493,14.2948)">
            <path d="M119.588,84.429C115.064,83.059 115.941,95.602 119.588,98.61C127.538,105.165 167.287,115.378 167.287,123.763C167.287,132.147 127.538,142.36 119.588,148.916C115.941,151.923 115.072,164.494 119.588,163.097C129.66,159.981 169.95,137.917 180.022,130.219C183.547,127.525 183.559,119.589 180.022,116.91C169.95,109.278 129.66,87.479 119.588,84.429Z" style="fill:#bee0bc;"/>
        </g>
    </g>
</svg>
