<svg xmlns="http://www.w3.org/2000/svg" xmlns:xlink="http://www.w3.org/1999/xlink" viewBox="0 0 24 30" version="1.1" x="0px" y="0px"><title>health_002-hospital-building-clinic-doctor</title><desc>Created with Sketch.</desc><g stroke="none" stroke-width="1" fill="none" fill-rule="evenodd"><g transform="translate(-72.000000, -72.000000)" fill-rule="nonzero" fill="#2c3e50"><g transform="translate(73.000000, 74.000000)"><path d="M0.5,6 L6,6 L6,22 L0,22 L0,6.5 C0,6.22385763 0.223857625,6 0.5,6 Z M1,10 L1,12 L5,12 L5,10 L1,10 Z M1,7 L1,9 L5,9 L5,7 L1,7 Z M1,13 L1,15 L5,15 L5,13 L1,13 Z M1,16 L1,18 L5,18 L5,16 L1,16 Z M1,19 L1,21 L5,21 L5,19 L1,19 Z"/><path d="M21.5,6 C21.7761424,6 22,6.22385763 22,6.5 L22,22 L16,22 L16,6 L21.5,6 Z M21,10 L17,10 L17,12 L21,12 L21,10 Z M21,7 L17,7 L17,9 L21,9 L21,7 Z M21,13 L17,13 L17,15 L21,15 L21,13 Z M21,16 L17,16 L17,18 L21,18 L21,16 Z M21,19 L17,19 L17,21 L21,21 L21,19 Z"/><path d="M5.5,0 L16.5,0 C16.7761424,0 17,0.223857625 17,0.5 L17,22 L5,22 L5,0.5 C5,0.223857625 5.22385763,0 5.5,0 Z M12,5 L12,3 L10,3 L10,5 L8,5 L8,7 L10,7 L10,9 L12,9 L12,7 L14,7 L14,5 L12,5 Z M8.5,12 C8.22385763,12 8,12.2238576 8,12.5 L8,21 L14,21 L14,12.5 C14,12.2238576 13.7761424,12 13.5,12 L8.5,12 Z"/></g></g></g><text x="0" y="39" fill="#2c3e50" font-size="5px" font-weight="bold" font-family="'Helvetica Neue', Helvetica, Arial-Unicode, Arial, Sans-serif">Created by Xinh Studio</text><text x="0" y="44" fill="#2c3e50" font-size="5px" font-weight="bold" font-family="'Helvetica Neue', Helvetica, Arial-Unicode, Arial, Sans-serif">from the Noun Project</text></svg>